<svg width="16" height="16" viewBox="0 0 16 16" fill="none" xmlns="http://www.w3.org/2000/svg">
<rect width="16" height="16" fill="#FFD5F6"/>
<path d="M3.21548 12.4302C3.18969 12.4302 3.17679 12.413 3.17679 12.3786L3.18969 8.71544L1.4613 3.5045C1.45271 3.4701 1.4656 3.4529 1.5 3.4529H2.93172C2.97471 3.4529 3.00051 3.4701 3.00911 3.5045L3.96359 6.97416L4.93097 3.5045C4.93957 3.4701 4.96106 3.4529 4.99546 3.4529H6.44008C6.47447 3.4529 6.48737 3.4701 6.47877 3.5045L4.73749 8.66385L4.75039 12.3786C4.75039 12.413 4.73319 12.4302 4.6988 12.4302H3.21548ZM8.751 12.5592C8.27806 12.5592 7.84812 12.4431 7.46117 12.2109C7.08281 11.9701 6.78185 11.652 6.55828 11.2564C6.33471 10.8609 6.22292 10.418 6.22292 9.92789L6.23582 5.9036C6.23582 5.43066 6.34331 5.00071 6.55828 4.61376C6.78185 4.21821 7.08281 3.90435 7.46117 3.67218C7.84812 3.43141 8.27806 3.31102 8.751 3.31102C9.22394 3.31102 9.64959 3.42711 10.0279 3.65928C10.4063 3.89145 10.7073 4.20531 10.9308 4.60086C11.1544 4.98781 11.2662 5.42206 11.2662 5.9036V6.49692C11.2662 6.53132 11.249 6.54852 11.2146 6.54852H9.76998C9.73558 6.54852 9.71838 6.53132 9.71838 6.49692V5.9036C9.71838 5.61983 9.62379 5.37476 9.43462 5.16839C9.25404 4.96202 9.02617 4.85883 8.751 4.85883C8.44144 4.85883 8.20497 4.96631 8.04159 5.18129C7.87821 5.38766 7.79652 5.62843 7.79652 5.9036V9.92789C7.79652 10.2461 7.88681 10.504 8.06739 10.7018C8.25657 10.8996 8.48444 10.9985 8.751 10.9985C9.02617 10.9985 9.25404 10.891 9.43462 10.676C9.62379 10.4524 9.71838 10.2031 9.71838 9.92789V9.33457C9.71838 9.30017 9.73558 9.28297 9.76998 9.28297H11.2275C11.2619 9.28297 11.2791 9.30017 11.2791 9.33457V9.92789C11.2791 10.418 11.163 10.8609 10.9308 11.2564C10.7073 11.652 10.4063 11.9701 10.0279 12.2109C9.64959 12.4431 9.22394 12.5592 8.751 12.5592ZM12.1707 10.0569C12.1363 10.0569 12.1148 10.0354 12.1062 9.99238L11.8353 7.02576V3.5174C11.8353 3.4744 11.8525 3.4529 11.8869 3.4529H13.3315C13.3745 3.4529 13.396 3.4744 13.396 3.5174L13.3831 7.02576L13.1123 9.99238C13.1037 10.0354 13.0822 10.0569 13.0478 10.0569H12.1707ZM11.8869 12.4302C11.8525 12.4302 11.8353 12.4087 11.8353 12.3657V10.9598C11.8353 10.9254 11.8525 10.9082 11.8869 10.9082H13.3315C13.3659 10.9082 13.3831 10.9254 13.3831 10.9598V12.3657C13.3831 12.4087 13.3659 12.4302 13.3315 12.4302H11.8869Z" fill="#F04DCC"/>
</svg>
