<svg width="33" height="32" viewBox="0 0 33 32" fill="none" xmlns="http://www.w3.org/2000/svg">
<rect width="32" height="32" transform="translate(0.304443)" fill="#FFD5F6"/>
<path d="M7.23541 24.8599C7.18382 24.8599 7.15802 24.8255 7.15802 24.7567L7.18382 17.4304L3.72705 7.00851C3.70986 6.93972 3.73565 6.90532 3.80444 6.90532H6.66788C6.75387 6.90532 6.80547 6.93972 6.82266 7.00851L8.73162 13.9478L10.6664 7.00851C10.6836 6.93972 10.7266 6.90532 10.7954 6.90532H13.6846C13.7534 6.90532 13.7792 6.93972 13.762 7.00851L10.2794 17.3272L10.3052 24.7567C10.3052 24.8255 10.2708 24.8599 10.202 24.8599H7.23541ZM18.3065 25.1178C17.3606 25.1178 16.5007 24.8857 15.7268 24.4213C14.9701 23.9398 14.3681 23.3035 13.921 22.5124C13.4739 21.7213 13.2503 20.8356 13.2503 19.8553L13.2761 11.8067C13.2761 10.8608 13.4911 10.0009 13.921 9.22703C14.3681 8.43593 14.9701 7.80821 15.7268 7.34387C16.5007 6.86233 17.3606 6.62156 18.3065 6.62156C19.2523 6.62156 20.1036 6.85373 20.8603 7.31807C21.617 7.78241 22.219 8.41013 22.6661 9.20123C23.1132 9.97513 23.3368 10.8436 23.3368 11.8067V12.9934C23.3368 13.0621 23.3024 13.0965 23.2336 13.0965H20.3444C20.2756 13.0965 20.2412 13.0621 20.2412 12.9934V11.8067C20.2412 11.2392 20.052 10.749 19.6737 10.3363C19.3125 9.92354 18.8568 9.71717 18.3065 9.71717C17.6873 9.71717 17.2144 9.93214 16.8876 10.3621C16.5609 10.7748 16.3975 11.2564 16.3975 11.8067V19.8553C16.3975 20.4916 16.5781 21.0075 16.9392 21.4031C17.3176 21.7986 17.7733 21.9964 18.3065 21.9964C18.8568 21.9964 19.3125 21.7815 19.6737 21.3515C20.052 20.9044 20.2412 20.4056 20.2412 19.8553V18.6686C20.2412 18.5999 20.2756 18.5655 20.3444 18.5655H23.2594C23.3282 18.5655 23.3626 18.5999 23.3626 18.6686V19.8553C23.3626 20.8356 23.1304 21.7213 22.6661 22.5124C22.219 23.3035 21.617 23.9398 20.8603 24.4213C20.1036 24.8857 19.2523 25.1178 18.3065 25.1178ZM25.1458 20.1133C25.077 20.1133 25.034 20.0703 25.0168 19.9843L24.4751 14.051V7.0343C24.4751 6.94832 24.5095 6.90532 24.5783 6.90532H27.4675C27.5535 6.90532 27.5965 6.94832 27.5965 7.0343L27.5707 14.051L27.029 19.9843C27.0118 20.0703 26.9688 20.1133 26.9 20.1133H25.1458ZM24.5783 24.8599C24.5095 24.8599 24.4751 24.8169 24.4751 24.7309V21.919C24.4751 21.8502 24.5095 21.8158 24.5783 21.8158H27.4675C27.5363 21.8158 27.5707 21.8502 27.5707 21.919V24.7309C27.5707 24.8169 27.5363 24.8599 27.4675 24.8599H24.5783Z" fill="#F04DCC"/>
</svg>
