<svg width="145" height="151" viewBox="0 0 145 151" fill="none" xmlns="http://www.w3.org/2000/svg">
<g opacity="0.6" clip-path="url(#clip0_1043_402)">
<path d="M123.544 52.4834C124.114 54.1154 124.624 55.7667 125.107 57.4712C125.293 58.1862 125.506 58.9148 125.679 59.6564C125.839 60.2912 125.979 60.9325 126.119 61.5737C126.496 63.2905 126.792 65.0331 127.021 66.7751C127.153 67.5962 127.238 68.4102 127.323 69.2243L127.367 69.498C127.422 70.0118 127.477 70.5256 127.511 71.0458C127.667 72.8337 127.748 74.6676 127.757 76.4807C127.787 77.4675 127.77 78.4472 127.754 79.4268C127.742 79.94 127.724 80.4331 127.685 80.9326C127.593 82.8447 127.427 84.7361 127.162 86.5932C127.024 87.745 126.839 88.8897 126.627 90.0208C126.563 90.4401 126.479 90.8659 126.388 91.2716C126.001 93.3008 125.514 95.2957 124.921 97.2363C124.541 98.599 124.107 99.9345 123.621 101.243C123.504 101.568 123.381 101.874 123.264 102.199C122.409 104.424 121.44 106.574 120.353 108.63C119.476 110.308 118.539 111.938 117.51 113.488C117.375 113.687 117.246 113.905 117.09 114.11C116.237 115.382 115.331 116.626 114.379 117.797C113.124 119.331 111.802 120.798 110.395 122.137C109.735 122.77 109.069 123.384 108.376 123.984C105.261 126.693 101.832 128.905 98.2012 130.563L98.0808 130.602C98.0808 130.602 98.007 130.648 97.9733 130.681C97.8192 130.753 97.605 130.844 97.3305 130.954C97.1764 131.026 96.7879 131.196 96.3328 131.365C95.3688 131.742 94.1038 132.216 92.5585 132.714C86.2769 134.739 75.4303 137.173 62.6839 135.568C62.6638 135.575 62.6373 135.561 62.6172 135.568L62.8516 133.477L63.0795 131.366C63.0795 131.366 63.106 131.38 63.1261 131.373C65.411 131.589 67.7317 131.572 69.9812 131.334C72.3375 131.083 74.703 130.587 76.9707 129.856L77.2316 129.772C78.4293 129.363 79.6477 128.882 80.8331 128.367C86.2054 125.927 91.0311 122.134 95.1691 117.102C98.0851 113.571 100.546 109.589 102.477 105.202C103.998 101.811 105.228 98.2036 106.099 94.4461C106.871 91.2741 107.412 87.8666 107.687 84.3232C107.946 81.1396 107.965 77.9003 107.778 74.639C107.701 73.6451 107.638 72.6246 107.502 71.5835C107.264 69.3349 106.971 67.3257 106.591 65.3889C106.007 62.4104 105.217 59.4098 104.259 56.5076C103.315 53.6455 102.13 50.7943 100.75 48.028C99.3382 45.2279 97.6917 42.5256 95.8833 40.0084C93.8711 37.2025 91.7092 34.6884 89.4436 32.5399C86.6831 29.8867 83.745 27.645 80.6689 25.8686C75.969 23.1098 70.9981 21.4348 65.9162 20.8585L65.1434 20.7977C62.905 20.5891 60.6711 20.6006 58.4682 20.8457C56.1119 21.096 53.8668 21.554 51.5725 22.2714L50.8456 20.2913L50.1186 18.3112L50.2792 18.2594C52.3748 17.4067 61.5834 14.0839 75.8676 14.6168C77.1071 14.6822 78.3933 14.7548 79.7591 14.8681L79.9592 14.8701C80.9851 14.9601 82.0441 15.0838 83.1231 15.201L83.4028 15.2437C83.4028 15.2437 83.5626 15.2586 83.6824 15.2864L83.9355 15.3156C87.1441 15.8535 90.2955 16.7642 93.3563 18.0805C93.6087 18.1763 93.8877 18.2857 94.1465 18.4015C95.6999 19.0966 97.2389 19.8849 98.7437 20.7728C100.606 21.8774 102.421 23.1083 104.16 24.5184C104.478 24.7482 104.782 25.0044 105.087 25.2607C106.052 26.0567 106.984 26.8856 107.862 27.7541C109.282 29.0678 110.602 30.4804 111.854 31.9591C112.17 32.3221 112.487 32.6852 112.79 33.0747C113.415 33.8474 114.054 34.6602 114.652 35.4859C115.698 36.9425 116.716 38.4522 117.647 40.0344C117.962 40.5308 118.251 41.0135 118.526 41.5228C118.945 42.2734 119.364 43.0241 119.764 43.7812C120.568 45.3155 121.326 46.9093 122.009 48.549C122.27 49.1515 122.511 49.7604 122.758 50.3894C123.024 51.0785 123.297 51.7877 123.544 52.4834Z" fill="#FFD5F6"/>
<g opacity="0.5">
<path d="M93.3559 18.0804L86.6729 20.2347L81.9567 21.755L81.0938 22.0332L81.7469 24.0593L82.3871 26.0452L84.0528 25.5083L86.6216 24.6802L93.1641 22.5711L98.7433 20.7726L93.3559 18.0804Z" fill="#F04DCC"/>
</g>
<g opacity="0.5">
<path d="M104.159 24.5184L99.2421 26.1034L91.4152 28.6265L89.7695 29.157L90.1511 30.3405L91.0628 33.169L92.568 32.6838L94.7756 31.9721L103.245 29.242L107.861 27.7541L104.159 24.5184Z" fill="#F04DCC"/>
</g>
<g opacity="0.5">
<path d="M111.853 31.9591L107.478 33.3694L98.3864 36.3001L96.9414 36.7659L97.5881 38.7719L98.2347 40.7779L98.8368 40.5838L100.924 39.911L110.376 36.8639L114.651 35.4859L111.853 31.9591Z" fill="#F04DCC"/>
</g>
<g opacity="0.5">
<path d="M117.647 40.0343L113.552 41.3541L103.679 44.537L101.973 45.0869L102.619 47.0929L103.266 49.0989L103.547 49.0084L105.574 48.3549L115.689 45.0943L119.763 43.781L117.647 40.0343Z" fill="#F04DCC"/>
</g>
<g opacity="0.5">
<path d="M123.544 52.4833L106.907 57.8465L105.613 53.8345L122.01 48.5489C122.27 49.1514 122.511 49.7603 122.758 50.3893C123.024 51.0785 123.297 51.7877 123.544 52.4833Z" fill="#F04DCC"/>
</g>
<g opacity="0.5">
<path d="M125.107 57.4712L121.093 58.7651L110.235 62.2651L108.208 62.9185L108.008 62.9832L108.654 64.9892L109.301 66.9952L111.067 66.4259L122.085 62.8741L126.119 61.5738L125.107 57.4712Z" fill="#F04DCC"/>
</g>
<g opacity="0.5">
<path d="M127.021 66.7752C127.153 67.5963 127.238 68.4104 127.323 69.2244L127.367 69.4981C127.422 70.0119 127.477 70.5257 127.511 71.0459L110.332 76.5838L109.039 72.5718L127.021 66.7752Z" fill="#F04DCC"/>
</g>
<g opacity="0.5">
<path d="M127.757 76.4804L123.543 77.839L112.063 81.5395L109.916 82.2317L108.029 82.8399L109.323 86.8519L109.543 86.7807L111.751 86.0691L123.371 82.3232L127.686 80.9323L127.757 76.4804Z" fill="#F04DCC"/>
</g>
<g opacity="0.5">
<path d="M127.162 86.5931L122.686 88.0357L110.946 91.8204L108.658 92.5579L107.494 92.9331L108.141 94.9391L108.787 96.9451L109.911 96.5828L121.752 92.7659L126.388 91.2714L127.162 86.5931Z" fill="#F04DCC"/>
</g>
<g opacity="0.5">
<path d="M124.92 97.2363C124.54 98.599 124.106 99.9345 123.62 101.243C123.503 101.568 123.38 101.874 123.263 102.199L105.041 108.074L103.748 104.062L124.92 97.2363Z" fill="#F04DCC"/>
</g>
<g opacity="0.5">
<path d="M120.352 108.63C119.475 110.308 118.538 111.938 117.509 113.488C117.374 113.687 117.245 113.905 117.089 114.111L97.4417 120.444L96.1484 116.432L120.352 108.63Z" fill="#F04DCC"/>
</g>
<g opacity="0.5">
<path d="M94.1888 124.305C94.0269 124.49 93.852 124.635 93.6772 124.78C93.4415 125.011 93.1857 125.248 92.9235 125.466C91.9076 126.369 90.8658 127.192 89.8046 127.955C89.4148 128.258 88.9985 128.547 88.5757 128.816C88.327 129.007 88.092 129.171 87.8304 129.322C87.5015 129.539 87.1461 129.742 86.8172 129.959C85.4219 130.785 84.0008 131.531 82.5539 132.196C81.2409 132.797 79.9221 133.311 78.584 133.764L78.5238 133.783L77.2305 129.772L94.1888 124.305Z" fill="#F04DCC"/>
</g>
<path opacity="0.5" d="M114.378 117.797C113.123 119.331 111.801 120.798 110.394 122.137C109.734 122.77 109.068 123.384 108.375 123.984C105.26 126.693 101.831 128.906 98.2001 130.563L98.0797 130.602C98.0797 130.602 98.0058 130.648 97.9722 130.681C97.8181 130.753 97.6038 130.844 97.3293 130.955C97.1752 131.026 96.7868 131.196 96.3316 131.365C95.3677 131.742 94.1027 132.216 92.5573 132.714C86.2758 134.739 75.4291 137.173 62.6827 135.568C65.3075 135.807 67.8948 135.793 70.4246 135.531C73.0612 135.257 75.7141 134.689 78.2629 133.868L78.584 133.764C79.9222 133.311 81.2409 132.797 82.5539 132.197C84.0008 131.531 85.422 130.785 86.8172 129.959C87.1461 129.742 87.5015 129.539 87.8305 129.322C88.092 129.171 88.3271 129.007 88.5757 128.816C88.9985 128.547 89.4148 128.258 89.8046 127.955C90.8658 127.192 91.9076 126.369 92.9235 125.466C93.1858 125.248 93.4415 125.011 93.6772 124.78C93.8521 124.635 94.0269 124.49 94.1888 124.305L106.07 120.475C106.07 120.475 106.096 120.489 106.09 120.469L114.358 117.803L114.378 117.797Z" fill="#F04DCC"/>
<path d="M77.6176 131.862C75.1892 132.645 72.6833 133.187 70.2137 133.429C67.8108 133.672 65.3568 133.688 62.8919 133.464L62.4925 133.394L62.4724 133.4C61.194 133.214 59.8827 132.995 58.5648 132.755L58.5447 132.762L58.2787 132.693C37.7344 128.066 21.5054 106.724 18.8185 80.7952C15.8935 52.6845 29.3383 27.2467 50.7855 20.3108C53.2741 19.5086 55.7528 19.0196 58.2762 18.7376C60.6124 18.4938 62.9997 18.4771 65.3514 18.6934L66.1909 18.755C69.1083 19.0768 72.0553 19.7655 74.8721 20.8062C75.6164 21.0534 76.3335 21.3537 77.004 21.6469C77.4824 21.8248 77.8739 22.0086 78.272 22.2125C78.9224 22.5121 79.4732 22.7775 80.0104 23.0693C80.3288 23.2324 80.5941 23.3683 80.8459 23.5308C81.2504 23.7547 81.4957 23.8971 81.7345 24.0194C82.981 24.7248 84.2132 25.5234 85.3982 26.3815C87.0465 27.5774 88.5874 28.8522 89.9812 30.1523C90.2854 30.4086 90.4769 30.5904 90.6685 30.7723L90.926 31.0214C91.6528 31.6951 92.4118 32.469 93.2161 33.3834C94.5025 34.7624 95.6621 36.1602 96.6882 37.5567C96.9451 37.8725 97.136 38.121 97.3068 38.3759L97.6226 38.8056C98.1356 39.5039 98.6481 40.2687 99.1139 41.0265C100.066 42.4689 100.971 43.9709 101.803 45.5187C102.078 46.028 102.359 46.5573 102.594 47.0795C102.96 47.803 103.3 48.5129 103.646 49.2428C104.415 50.9434 105.047 52.4893 105.552 53.9207C105.812 54.5898 106.033 55.2052 106.233 55.827L106.402 56.3486C106.557 56.83 106.705 57.2914 106.861 57.7729C107.339 59.2573 107.73 60.8142 108.178 62.7516C108.35 63.4932 108.509 64.2613 108.668 65.0293L108.977 66.8121C109.21 68.2208 109.414 69.7492 109.578 71.3572L109.619 71.8975C109.737 72.8119 109.788 73.6589 109.833 74.4859C109.868 75.0728 109.909 75.6131 109.924 76.1398C110.006 77.8404 109.996 79.5933 109.923 81.499C109.906 82.5453 109.849 83.5379 109.76 84.4969L109.722 84.9298C109.706 85.2229 109.683 85.496 109.64 85.7755C109.474 87.6669 109.216 89.4774 108.856 91.4536C108.651 92.6714 108.399 93.8154 108.141 94.9394L108.044 95.325C108.002 95.5379 107.939 95.7573 107.877 95.9766C107.37 98.0447 106.763 100.012 106.057 101.945C105.57 103.32 105.036 104.687 104.395 106.068C104.266 106.353 104.163 106.585 104.041 106.824C102.957 109.166 101.789 111.315 100.508 113.322C99.316 115.19 98.0719 116.897 96.7962 118.438C96.6544 118.617 96.5534 118.716 96.4588 118.835C95.8514 119.562 95.3521 120.144 94.8062 120.718C94.4825 121.088 94.1321 121.445 93.8155 121.768L93.6828 121.7L92.6642 122.87L91.7829 123.641L91.8023 123.702C91.8023 123.702 91.6677 123.834 91.5939 123.88C90.6116 124.75 89.6637 125.52 88.5824 126.29C88.1725 126.599 87.8099 126.849 87.4409 127.079C87.1185 127.315 86.9572 127.434 86.7695 127.539L85.6423 128.234C84.3947 128.968 83.0337 129.695 81.6606 130.315C80.4616 130.856 79.2432 131.338 77.905 131.791L77.604 131.888L77.6176 131.862Z" fill="#FFD5F6"/>
<path d="M51.5725 22.2716C53.78 21.5599 56.1319 21.0896 58.4882 20.8394C60.6911 20.5943 62.925 20.5828 65.1899 20.8049L65.9427 20.8722C68.7267 21.1927 71.5074 21.8465 74.2381 22.8264C74.8361 23.0322 75.4672 23.2716 76.1643 23.5784L76.2374 23.5991L76.3105 23.6198C76.6426 23.7564 77.0011 23.9065 77.3461 24.0832L77.4257 24.124L77.5053 24.1647C78.0231 24.3964 78.5273 24.6546 79.1175 24.9737C79.3298 25.0824 79.5421 25.1911 79.7608 25.3199L79.9 25.4079L80.0592 25.4895C80.298 25.6118 80.5103 25.7205 80.709 25.8558C81.8823 26.5405 83.055 27.2918 84.174 28.0826C85.7627 29.2313 87.2441 30.4589 88.5519 31.6982L88.6509 31.7991L88.77 31.8936C88.922 32.0217 89.054 32.1563 89.2061 32.2845L89.4967 32.5673C90.1904 33.2073 90.8964 33.954 91.7143 34.8419C92.9282 36.1336 94.0217 37.464 95.0285 38.8003L95.101 38.8877L95.167 38.955C95.3449 39.1634 95.5028 39.3782 95.6607 39.593L95.9434 39.9891C96.496 40.741 96.969 41.4522 97.3888 42.1362L97.4082 42.1964L97.4678 42.2436C98.3613 43.5721 99.2004 45.0068 100.019 46.5145C100.287 47.0037 100.536 47.4994 100.803 48.0553C101.157 48.7386 101.47 49.4349 101.79 50.0846C102.553 51.7651 103.145 53.2573 103.69 54.7424C103.918 55.3112 104.125 55.8865 104.313 56.4682L104.481 56.9898C104.623 57.4311 104.772 57.8925 104.914 58.3338L104.934 58.394L104.953 58.4542C105.406 59.8583 105.784 61.3751 106.226 63.2258C106.392 63.9473 106.544 64.6954 106.697 65.3767L107 67.0728C107.245 68.5883 107.431 70.0565 107.583 71.4911L107.632 71.9182L107.637 72.0715L107.656 72.1317L107.656 72.1983C107.742 72.9457 107.814 73.7197 107.852 74.5266L107.872 74.5867L107.851 74.6599C107.899 75.1536 107.908 75.6603 107.942 76.1805C108.026 77.8144 108.009 79.5473 107.95 81.4264C107.941 82.2928 107.885 83.2188 107.788 84.2244L107.744 84.7039C107.728 84.9303 107.719 85.1769 107.683 85.4098L107.662 85.5496L107.64 85.6894C107.497 87.3743 107.259 89.1117 106.879 91.0944C106.695 92.1724 106.457 93.2899 106.206 94.3673L106.108 94.8196C106.073 94.9859 106.025 95.1787 105.97 95.3515L105.935 95.4511L105.901 95.5508C105.428 97.4525 104.863 99.34 104.15 101.253C103.717 102.522 103.184 103.823 102.571 105.15C102.468 105.382 102.359 105.595 102.257 105.827L102.216 105.906L102.175 105.986C101.167 108.149 100.039 110.218 98.8196 112.139C97.6681 113.927 96.4914 115.569 95.1956 117.116C95.1347 117.202 95.0674 117.268 95.0065 117.354L94.9055 117.453L94.8109 117.572C94.379 118.088 93.9471 118.604 93.4485 119.119L93.2627 119.023L91.2527 121.31L89.4099 122.878L89.4293 122.939C88.8038 123.472 88.1253 123.979 87.4266 124.492L87.3464 124.518L87.2991 124.578C87.0168 124.801 86.7079 125.012 86.3926 125.202L86.245 125.294L86.1039 125.406C86.0164 125.478 85.929 125.551 85.8151 125.61L85.6947 125.648L85.5937 125.747C85.4661 125.833 85.3386 125.918 85.2045 125.984C85.0168 126.088 84.8556 126.207 84.6879 126.305C83.4403 127.039 82.1732 127.714 80.8939 128.281C79.7551 128.803 78.5969 129.265 77.3792 129.68L77.0581 129.783C74.7502 130.527 72.4048 131.018 70.0685 131.261C67.8391 131.493 65.5385 131.504 63.24 131.315L63.0005 131.259L62.8671 131.258L62.3545 131.179C61.3292 131.023 60.3239 130.86 59.3323 130.67L59.2527 130.629L58.7601 130.544C39.0203 126.145 23.5103 105.59 20.9209 80.5825C18.1127 53.4528 30.9279 28.9487 51.452 22.3104L51.5524 22.278M50.2791 18.2596L50.1186 18.3113C27.7481 25.5448 13.694 51.9099 16.7222 81.0281C19.5065 107.878 36.3619 129.925 57.791 134.754C57.8175 134.768 57.8376 134.761 57.8641 134.775C59.4014 135.077 60.9458 135.332 62.4307 135.539C62.4909 135.52 62.5505 135.567 62.6171 135.568C62.6372 135.561 62.6637 135.575 62.6838 135.569C65.3086 135.807 67.8959 135.793 70.4257 135.531C73.0623 135.257 75.7152 134.689 78.264 133.868L78.5851 133.764C79.9233 133.311 81.242 132.797 82.555 132.197C84.0019 131.531 85.423 130.785 86.8183 129.959C87.1472 129.742 87.5026 129.539 87.8315 129.322C88.0931 129.171 88.3281 129.007 88.5768 128.816C88.9996 128.547 89.4159 128.258 89.8057 127.955C90.8669 127.192 91.9087 126.369 92.9246 125.466C93.1869 125.248 93.4426 125.011 93.6783 124.78C93.8531 124.635 94.028 124.49 94.1899 124.305C94.3984 124.127 94.5803 123.936 94.7687 123.764C94.8361 123.698 94.9034 123.632 94.9643 123.546C95.4221 123.111 95.887 122.628 96.3118 122.159C96.8914 121.552 97.4444 120.931 97.9845 120.269C98.1328 120.111 98.261 119.959 98.4028 119.78C99.7931 118.114 101.078 116.327 102.27 114.459C103.625 112.339 104.834 110.111 105.905 107.795C106.054 107.504 106.184 107.218 106.313 106.933C106.934 105.559 107.515 104.132 108.023 102.684C108.756 100.698 109.384 98.6576 109.891 96.5896C110.009 96.1975 110.086 95.8183 110.183 95.4326C110.468 94.2556 110.72 93.0449 110.926 91.8271C111.278 89.9642 111.564 88.034 111.731 86.0759C111.802 85.61 111.827 85.137 111.871 84.6575C111.962 83.6319 112.026 82.5927 112.043 81.5464C112.115 79.7074 112.12 77.8677 112.038 76.0339C112.017 75.4871 111.989 74.9203 111.948 74.38C111.91 73.5064 111.839 72.5992 111.728 71.7049C111.71 71.5114 111.692 71.3179 111.674 71.1245C111.497 69.4763 111.286 67.9279 111.048 66.4324C110.934 65.8048 110.827 65.1971 110.719 64.5895C110.56 63.8214 110.395 63.0333 110.216 62.2716C109.82 60.5614 109.39 58.8841 108.873 57.2127C108.731 56.7047 108.57 56.2032 108.408 55.7017L108.24 55.1801C108.027 54.5182 107.793 53.8627 107.54 53.2136C106.943 51.568 106.266 49.9484 105.555 48.3617C105.202 47.6117 104.856 46.8817 104.49 46.1583C104.229 45.6225 103.941 45.0731 103.659 44.5438C102.815 42.9558 101.891 41.3936 100.905 39.9176C100.4 39.1061 99.8544 38.3076 99.2954 37.5356C98.9861 37.1259 98.6969 36.7098 98.3676 36.3067C97.2294 34.7692 96.0104 33.3241 94.757 31.9788C93.9656 31.1045 93.1671 30.2768 92.3413 29.5022C92.0243 29.2058 91.7272 28.903 91.3965 28.6331C89.8706 27.1984 88.2502 25.8828 86.6019 24.6869C85.3373 23.788 84.052 22.9623 82.7725 22.2232C82.5007 22.0672 82.2289 21.9113 81.937 21.7618C81.6322 21.5722 81.3137 21.4091 80.9953 21.246C80.4051 20.9269 79.8012 20.6344 79.2038 20.362C78.7527 20.1309 78.288 19.9264 77.8298 19.742C77.0796 19.408 76.3159 19.1006 75.545 18.8398C72.5354 17.7505 69.4686 17.034 66.3182 16.6766L65.4988 16.6086C63.0073 16.3709 60.4867 16.3863 58.0035 16.6553C55.4134 16.9366 52.8143 17.4645 50.2591 18.266L50.2791 18.2596Z" fill="#F791E1"/>
<path d="M61.8239 43.4233L71.7131 64.6165L92.8446 61.237C93.7729 61.0927 94.3538 62.3449 93.6998 63.065L78.6778 79.5555L88.567 100.749C88.9979 101.673 88.1146 102.644 87.2726 102.163L68.1059 91.157L53.084 107.648C52.43 108.368 51.2896 107.717 51.4265 106.698L54.6009 83.4196L35.4342 72.414C34.5922 71.9325 34.7726 70.5678 35.7145 70.3971L56.846 67.0175L60.0204 43.739C60.1573 42.7205 61.3996 42.5193 61.8304 43.4434L61.8239 43.4233Z" fill="#F04DCC"/>
</g>
<defs>
<clipPath id="clip0_1043_402">
<rect width="112.051" height="121.991" fill="white" transform="translate(0 34.3787) rotate(-17.8673)"/>
</clipPath>
</defs>
</svg>
