<svg width="180" height="180" viewBox="0 0 180 180" fill="none" xmlns="http://www.w3.org/2000/svg">
<rect width="180" height="180" fill="#FFD5F6"/>
<path d="M39.2992 141.837C39.009 141.837 38.8639 141.643 38.8639 141.256L39.009 100.046L19.5647 41.423C19.4679 41.0361 19.613 40.8426 20 40.8426H36.1069C36.5905 40.8426 36.8808 41.0361 36.9775 41.423L47.7154 80.4568L58.5984 41.423C58.6951 41.0361 58.937 40.8426 59.3239 40.8426H75.5759C75.9628 40.8426 76.1079 41.0361 76.0112 41.423L56.4218 99.4657L56.5669 141.256C56.5669 141.643 56.3734 141.837 55.9865 141.837H39.2992ZM101.574 143.288C96.2532 143.288 91.4163 141.982 87.0631 139.37C82.8067 136.661 79.4208 133.082 76.9057 128.632C74.3905 124.182 73.1329 119.2 73.1329 113.686L73.278 68.4129C73.278 63.0923 74.4872 58.2554 76.9057 53.9022C79.4208 49.4523 82.8067 45.9214 87.0631 43.3094C91.4163 40.6008 96.2532 39.2464 101.574 39.2464C106.894 39.2464 111.683 40.5524 115.939 43.1643C120.196 45.7762 123.582 49.3072 126.097 53.7571C128.612 58.1103 129.87 62.9956 129.87 68.4129V75.0878C129.87 75.4748 129.676 75.6682 129.289 75.6682H113.037C112.65 75.6682 112.457 75.4748 112.457 75.0878V68.4129C112.457 65.2205 111.393 62.4635 109.264 60.1418C107.233 57.8201 104.669 56.6592 101.574 56.6592C98.0912 56.6592 95.431 57.8685 93.5929 60.2869C91.7549 62.6086 90.8359 65.3173 90.8359 68.4129V113.686C90.8359 117.266 91.8516 120.168 93.8831 122.393C96.0114 124.618 98.5749 125.73 101.574 125.73C104.669 125.73 107.233 124.521 109.264 122.102C111.393 119.587 112.457 116.782 112.457 113.686V107.011C112.457 106.624 112.65 106.431 113.037 106.431H129.434C129.821 106.431 130.015 106.624 130.015 107.011V113.686C130.015 119.2 128.709 124.182 126.097 128.632C123.582 133.082 120.196 136.661 115.939 139.37C111.683 141.982 106.894 143.288 101.574 143.288ZM140.045 115.137C139.658 115.137 139.416 114.895 139.32 114.412L136.272 81.0372V41.5681C136.272 41.0845 136.466 40.8426 136.853 40.8426H153.105C153.589 40.8426 153.83 41.0845 153.83 41.5681L153.685 81.0372L150.638 114.412C150.541 114.895 150.299 115.137 149.912 115.137H140.045ZM136.853 141.837C136.466 141.837 136.272 141.595 136.272 141.111V125.295C136.272 124.908 136.466 124.714 136.853 124.714H153.105C153.492 124.714 153.685 124.908 153.685 125.295V141.111C153.685 141.595 153.492 141.837 153.105 141.837H136.853Z" fill="#F04DCC"/>
</svg>
