<svg width="88" height="88" viewBox="0 0 88 88" fill="none" xmlns="http://www.w3.org/2000/svg">
<g clip-path="url(#clip0_1418_934)">
<rect width="88" height="88" rx="8" fill="#ECECEC"/>
<g style="mix-blend-mode:multiply" opacity="0.5">
<rect x="-5.19043" y="-5.18994" width="48.9805" height="48.9805" rx="24.4903" fill="#3A3A3A" fill-opacity="0.1"/>
<g clip-path="url(#clip1_1418_934)">
<path d="M19.3004 5.7002C11.7889 5.7002 5.7002 11.7889 5.7002 19.3005C5.7002 26.812 11.789 32.9007 19.3004 32.9007C26.812 32.9007 32.9007 26.812 32.9007 19.3005C32.9007 11.7889 26.812 5.7002 19.3004 5.7002ZM13.9173 13.1764L20.7827 17.8188C21.2359 18.1452 21.5424 18.6369 21.6359 19.1875C21.7293 19.7381 21.6023 20.3034 21.2822 20.7611C20.9621 21.2188 20.4748 21.532 19.9255 21.6331C19.3761 21.7342 18.8092 21.615 18.3472 21.3013C18.1441 21.1582 17.9671 20.9812 17.824 20.7782L13.1816 13.9127C13.1101 13.8102 13.077 13.686 13.0881 13.5617C13.099 13.4373 13.1533 13.3208 13.2417 13.2326C13.3299 13.1442 13.4464 13.0898 13.5708 13.0789C13.6951 13.0679 13.8194 13.1011 13.9218 13.1725L13.9173 13.1764ZM19.3004 30.8083C12.958 30.8083 7.79257 25.6461 7.79257 19.3005C7.78713 17.7527 8.09661 16.22 8.70214 14.7956C9.30768 13.3712 10.1966 12.0849 11.3149 11.0148C11.4018 10.9281 11.5052 10.8596 11.6189 10.8132C11.7326 10.7669 11.8544 10.7436 11.9772 10.7448C12.1 10.7461 12.2214 10.7717 12.3341 10.8202C12.447 10.8689 12.5489 10.9394 12.6342 11.0279C12.7194 11.1162 12.7862 11.2207 12.8306 11.3352C12.875 11.4497 12.8962 11.5718 12.893 11.6946C12.8897 11.8174 12.8621 11.9382 12.8115 12.0502C12.7611 12.1622 12.6889 12.263 12.599 12.3467C11.6607 13.2448 10.9147 14.3245 10.4065 15.5198C9.89835 16.7153 9.63855 18.0015 9.64294 19.3005C9.64294 24.6255 13.9754 28.9579 19.3005 28.9579C24.6255 28.9579 28.9579 24.6255 28.9579 19.3005C28.9579 14.2873 25.1185 10.1543 20.2257 9.6888V13.285C20.2257 13.5303 20.1282 13.7657 19.9547 13.9392C19.7812 14.1127 19.5459 14.2102 19.3005 14.2102C19.055 14.2102 18.8198 14.1127 18.6462 13.9392C18.4728 13.7657 18.3753 13.5303 18.3753 13.285V8.71775C18.3753 8.4724 18.4728 8.23706 18.6462 8.06353C18.8198 7.89006 19.055 7.79257 19.3005 7.79257C25.6461 7.79257 30.8083 12.958 30.8083 19.3005C30.8083 25.6429 25.646 30.8083 19.3004 30.8083Z" fill="#BDBDBD"/>
</g>
</g>
<g style="mix-blend-mode:multiply" opacity="0.5">
<rect x="44.0195" y="44.019" width="48.9805" height="48.9805" rx="24.4903" fill="#3A3A3A" fill-opacity="0.1"/>
<g clip-path="url(#clip2_1418_934)">
<path d="M77.6201 64.5163C76.7673 62.2299 75.5209 60.1093 73.9465 58.2537C71.2176 55.0595 67.6228 52.9985 64.7955 52.9985C64.6249 52.9985 64.4609 53.0383 64.3101 53.1112C64.1592 53.1841 64.028 53.2968 63.923 53.4293C63.8181 53.5618 63.7459 53.7209 63.7131 53.8866C63.6803 54.0522 63.6803 54.2245 63.7262 54.3902C64.684 58.0814 62.7029 61.1431 60.6037 64.3904C58.8719 67.0809 57.0811 69.8576 57.0811 73.0386C57.0811 78.5788 61.1154 83.1779 66.3633 84.0195C66.4683 84.0328 66.4814 83.7876 66.3633 83.7213C65.1169 83.0387 64.4872 81.1235 64.6643 79.5132C64.8152 78.1281 65.8385 76.4581 66.6257 75.0399C67.0718 74.2315 67.367 73.3302 67.59 72.4024C67.6162 72.303 67.6622 72.2102 67.7278 72.1307C67.7934 72.0512 67.8721 71.9982 67.9639 71.9584C68.0558 71.9253 68.1542 71.912 68.2526 71.9253C68.351 71.9385 68.4428 71.9783 68.5215 72.0379C69.2037 72.5946 69.8072 73.2507 70.3189 73.9863C71.6703 75.8816 72.4706 78.1281 72.4706 79.9903C72.4706 80.7458 72.3984 81.4284 72.2475 82.0314C72.0966 82.6345 72.7067 83.1514 73.2577 82.8598C76.7411 80.991 79.1289 77.2865 79.1289 73.032C79.1289 70.0167 78.6237 67.1538 77.6266 64.5096L77.6201 64.5163Z" fill="#BDBDBD"/>
</g>
</g>
<g style="mix-blend-mode:multiply" opacity="0.5">
<rect x="-5.19043" y="44.019" width="48.9805" height="48.9805" rx="24.4903" fill="#3A3A3A" fill-opacity="0.1"/>
<path d="M14.213 84.0196C13.6226 84.0196 13.0912 83.6325 12.9337 83.0618C11.543 77.9973 13.7735 70.1184 12.6254 65.8346C12.4614 65.231 10.3949 64.7587 9.57486 62.9546C8.82699 61.3145 8.33497 56.46 9.00412 54.2688C9.14188 53.8293 9.52894 53.5078 9.98816 53.4291C10.6967 53.3045 11.3658 53.7899 11.4642 54.505L12.3958 61.2817C12.422 61.4654 12.691 61.4589 12.7041 61.2686L13.1371 54.4394C13.1699 53.908 13.5504 53.4554 14.0752 53.3373C14.7181 53.1864 15.3545 53.5734 15.525 54.2098C15.9187 55.7186 15.8727 58.5002 15.8334 60.547C15.8334 60.7438 16.1155 60.7569 16.1417 60.5667L16.9814 54.505C17.0798 53.7965 17.749 53.3045 18.4575 53.4291C18.9364 53.5144 19.3235 53.8621 19.4612 54.3213C20.1435 56.6371 19.5859 61.7803 18.6805 63.4007C17.9392 64.7324 15.9646 65.231 15.8203 65.828C14.7247 70.3546 16.8765 77.8858 15.4988 83.0421C15.3479 83.6194 14.81 84.013 14.2195 84.013L14.213 84.0196Z" fill="#BDBDBD"/>
<path d="M24.4861 84.0199C23.9482 84.0199 23.5021 83.6132 23.4562 83.0753C22.8001 74.6978 22.3081 65.0214 22.8592 56.6768C23.0429 53.928 23.7973 51.2383 26.3952 54.4857C29.3932 58.2316 29.6294 64.1161 30.2985 68.8067C30.3838 69.3906 30.2657 69.9876 29.9443 70.4861C29.5441 71.1225 28.8684 71.5358 28.1271 71.6079L26.8609 71.7326C26.4214 71.7785 26.0803 72.1328 26.0606 72.5723L25.5095 83.0425C25.4833 83.587 25.0306 84.0199 24.4796 84.0199H24.4861Z" fill="#BDBDBD"/>
</g>
<g style="mix-blend-mode:multiply" opacity="0.5">
<rect x="44.0195" y="-5.18994" width="48.9805" height="48.9805" rx="24.4903" fill="#3A3A3A" fill-opacity="0.1"/>
<path d="M69.0671 30.0479L66.1907 26.9419C65.1957 28.1154 59.1367 33.9767 58.7477 34.2956C57.976 34.9334 55.8712 34.825 55.1123 33.8747C54.2385 32.6693 54.7041 31.1385 55.3419 30.2329C55.6353 29.8119 61.994 23.4595 62.5298 23.0195C62.5425 23.0195 62.5489 23.0003 62.5617 23.0003C62.2683 22.5475 62.3193 21.9289 62.7084 21.5334L79.7629 5.49935C80.3178 4.93171 81.0831 4.60645 81.8804 4.60645C85.1522 13.1465 74.5075 23.9889 69.0671 30.0479Z" fill="#BDBDBD"/>
</g>
</g>
<defs>
<clipPath id="clip0_1418_934">
<rect width="88" height="88" rx="8" fill="white"/>
</clipPath>
<clipPath id="clip1_1418_934">
<rect width="27.7556" height="27.7556" fill="white" transform="translate(5.42285 5.42285)"/>
</clipPath>
<clipPath id="clip2_1418_934">
<rect width="22.154" height="30.8639" fill="white" transform="translate(57.0811 52.9985)"/>
</clipPath>
</defs>
</svg>
